<?xml version="1.0" encoding="UTF-8" standalone="no"?>
<!-- Created with Inkscape (http://www.inkscape.org/) -->

<svg
   xmlns:dc="http://purl.org/dc/elements/1.1/"
   xmlns:cc="http://creativecommons.org/ns#"
   xmlns:rdf="http://www.w3.org/1999/02/22-rdf-syntax-ns#"
   xmlns:svg="http://www.w3.org/2000/svg"
   xmlns="http://www.w3.org/2000/svg"
   xmlns:sodipodi="http://sodipodi.sourceforge.net/DTD/sodipodi-0.dtd"
   xmlns:inkscape="http://www.inkscape.org/namespaces/inkscape"
   width="48"
   height="48"
   viewBox="0 0 48.000001 48.000001"
   id="svg4989"
   version="1.1"
   inkscape:version="0.91 r13725"
   sodipodi:docname="operator.svg">
  <defs
     id="defs4991" />
  <sodipodi:namedview
     id="base"
     pagecolor="#ffffff"
     bordercolor="#666666"
     borderopacity="1.0"
     inkscape:pageopacity="0.0"
     inkscape:pageshadow="2"
     inkscape:zoom="7.9195959"
     inkscape:cx="50.388429"
     inkscape:cy="8.5228096"
     inkscape:document-units="px"
     inkscape:current-layer="layer1"
     showgrid="false"
     units="px"
     inkscape:window-width="1680"
     inkscape:window-height="1026"
     inkscape:window-x="0"
     inkscape:window-y="24"
     inkscape:window-maximized="1" />
  <metadata
     id="metadata4994">
    <rdf:RDF>
      <cc:Work
         rdf:about="">
        <dc:format>image/svg+xml</dc:format>
        <dc:type
           rdf:resource="http://purl.org/dc/dcmitype/StillImage" />
        <dc:title />
      </cc:Work>
    </rdf:RDF>
  </metadata>
  <g
     inkscape:label="Capa 1"
     inkscape:groupmode="layer"
     id="layer1"
     transform="translate(0,-1004.3622)">
    <g
       id="g4171"
       transform="matrix(0,1,-1,0,1053.224,1003.475)">
      <g
         transform="matrix(0.99634958,0.08536693,-0.08536693,0.99634958,77.180367,4.7775524)"
         id="g5628">
        <path
           inkscape:connector-curvature="0"
           style="fill:none;stroke:#00c000;stroke-width:2;stroke-linecap:round;stroke-linejoin:round;stroke-miterlimit:4;stroke-dasharray:none;stroke-opacity:1"
           d="m 37.627844,1043.8733 c -0.408515,-0.1042 -0.513201,-0.2324 -0.513201,-0.6282 0,-0.5318 -0.12445,-0.7198 -0.642672,-0.9711 -0.255612,-0.124 -0.688808,-0.3701 -0.962657,-0.5469 -0.273848,-0.1769 -0.542702,-0.3215 -0.597453,-0.3215 -0.05475,0 -0.281159,0.092 -0.503129,0.2045 -0.507246,0.257 -0.691824,0.1991 -1.088842,-0.3418 -0.326159,-0.4443 -0.83102,-1.4243 -0.913772,-1.7738 -0.05615,-0.2371 0.07131,-0.4021 0.64649,-0.837 l 0.216988,-0.164 -2.46e-4,-1.1895 -2.46e-4,-1.1894 -0.230557,-0.1862 c -0.667542,-0.5394 -0.701959,-0.5829 -0.646793,-0.8177 0.168026,-0.7151 1.123752,-2.1947 1.474529,-2.2827 0.136274,-0.034 0.315906,0.018 0.562537,0.1621 0.199284,0.1168 0.409497,0.2123 0.467141,0.2123 0.05765,0 0.352493,-0.1646 0.655219,-0.3659 0.302726,-0.2012 0.718669,-0.438 0.924318,-0.5262 0.475785,-0.2039 0.639132,-0.4386 0.639132,-0.9181 0,-0.5949 0.15169,-0.6831 1.239224,-0.7203 1.647459,-0.056 1.960008,0.077 1.960008,0.8389 0,0.5034 0.03141,0.5416 0.717208,0.8717 0.259735,0.125 0.656697,0.3607 0.882139,0.5236 0.225441,0.163 0.465383,0.2959 0.533203,0.2954 0.06782,-6e-4 0.283962,-0.093 0.480315,-0.2051 0.196353,-0.1123 0.414937,-0.2041 0.485741,-0.2041 0.23696,0 0.81884,0.7167 1.199873,1.4778 0.520877,1.0405 0.512536,1.1074 -0.196917,1.5784 l -0.287109,0.1906 -0.01233,1.1451 c -0.0068,0.6299 0.0049,1.2097 0.02595,1.2885 0.02105,0.079 0.202148,0.2393 0.402436,0.3567 0.22206,0.1301 0.383949,0.2922 0.414874,0.4155 0.109162,0.4349 -0.904981,2.2418 -1.388271,2.4734 -0.205898,0.099 -0.263371,0.089 -0.588315,-0.1017 -0.198069,-0.1161 -0.422416,-0.211 -0.498549,-0.211 -0.07613,0 -0.388706,0.1664 -0.694607,0.3697 -0.305901,0.2034 -0.698462,0.4285 -0.87236,0.5004 -0.503409,0.2079 -0.603285,0.3368 -0.603285,0.7786 0,0.2951 -0.04841,0.4492 -0.194467,0.619 -0.190585,0.2215 -0.214738,0.2265 -1.209961,0.247 -0.558522,0.011 -1.135238,-0.01 -1.28159,-0.047 z"
           id="path5621" />
        <path
           style="fill:none;stroke:#00c000;stroke-width:2;stroke-linecap:round;stroke-linejoin:round;stroke-miterlimit:4;stroke-dasharray:none;stroke-opacity:1"
           d="m 39.503169,1039.161 c 0.412342,-0.1889 0.754386,-0.5137 0.980788,-0.9312 0.177281,-0.3269 0.185415,-0.3671 0.185415,-0.9161 0,-0.522 -0.01402,-0.6016 -0.153928,-0.875 -0.201955,-0.3946 -0.575702,-0.7704 -0.959048,-0.9642 -0.278184,-0.1406 -0.363277,-0.1562 -0.855775,-0.1566 -0.478366,-3e-4 -0.585754,0.018 -0.857235,0.1452 -0.434527,0.2036 -0.777764,0.5397 -0.988472,0.9677 -0.162807,0.3307 -0.177728,0.4047 -0.17769,0.8817 3.4e-5,0.4256 0.02269,0.5698 0.124092,0.7898 0.249218,0.5406 0.682375,0.94 1.232109,1.1362 0.411207,0.1468 1.054397,0.1128 1.469744,-0.077 z"
           id="path5619"
           inkscape:connector-curvature="0" />
      </g>
      <g
         transform="matrix(0.99858016,-0.05326966,0.05326966,0.99858016,-51.83308,-0.33123281)"
         id="g5623">
        <path
           inkscape:connector-curvature="0"
           style="fill:none;stroke:#00c000;stroke-width:2;stroke-linecap:round;stroke-linejoin:round;stroke-miterlimit:4;stroke-dasharray:none;stroke-opacity:1"
           d="m 11.593856,1041.2553 c -0.237445,-0.1203 -0.286362,-0.2043 -0.404516,-0.695 -0.07392,-0.307 -0.188882,-0.6127 -0.255462,-0.6792 -0.06658,-0.067 -0.424915,-0.1937 -0.7963,-0.2824 -0.3713843,-0.089 -0.9909103,-0.2919 -1.3767233,-0.4516 -0.403006,-0.1669 -0.767053,-0.2696 -0.855593,-0.2415 -0.08476,0.027 -0.31183,0.1808 -0.504593,0.342 -0.522957,0.4373 -0.648982,0.4765 -0.998425,0.3107 -0.401931,-0.1907 -1.348561,-1.1403 -1.85344,-1.8592 -0.565577,-0.8054 -0.55962,-1.0035 0.04938,-1.6419 0.350877,-0.3679 0.450145,-0.5254 0.418141,-0.6637 -0.02308,-0.1 -0.137845,-0.5459 -0.25503,-0.9916 -0.117184,-0.4457 -0.213062,-0.9544 -0.213062,-1.1306 0,-0.1761 -0.05152,-0.4435 -0.1145,-0.5943 -0.09658,-0.2311 -0.203853,-0.3081 -0.685279,-0.4921 -0.832984,-0.3183 -0.88949,-0.4971 -0.563425,-1.7825 0.348468,-1.3737 0.905746,-2.3679 1.327222,-2.3679 0.09868,0 0.336356,0.055 0.528169,0.123 0.636611,0.2246 0.795974,0.1786 1.304979,-0.3771 0.251985,-0.2751 0.725584,-0.7014 1.052442,-0.9474 0.772313,-0.5813 0.80687,-0.6507 0.679202,-1.3651 -0.09359,-0.5237 -0.08923,-0.5858 0.05466,-0.7786 0.291143,-0.3899 1.80884,-0.8197 3.0224963,-0.8559 0.590836,-0.018 0.642862,-0.01 0.816541,0.1968 0.102025,0.1186 0.211025,0.3859 0.242222,0.5939 0.08734,0.5824 0.297231,0.7605 1.153631,0.9788 0.406055,0.1035 1.007432,0.3074 1.336395,0.453 0.688026,0.3046 0.794145,0.2928 1.329621,-0.1484 0.47887,-0.3945 0.610824,-0.4376 0.927437,-0.3029 0.552338,0.2348 1.792658,1.5695 2.199262,2.3665 0.217767,0.4268 0.166043,0.5972 -0.335041,1.1036 -0.474533,0.4795 -0.497622,0.61 -0.248539,1.4046 0.08915,0.2844 0.205316,0.8566 0.258139,1.2715 0.113981,0.8953 0.229056,1.0619 0.87384,1.2651 0.595851,0.1879 0.710469,0.3708 0.645538,1.0306 -0.102698,1.0435 -0.807205,2.7719 -1.22655,3.0092 -0.184314,0.1043 -0.267498,0.1054 -0.607911,0.01 -0.876762,-0.2502 -0.848667,-0.2588 -1.643047,0.5024 -0.396045,0.3795 -0.891486,0.807 -1.10098,0.95 -0.447634,0.3056 -0.580959,0.6018 -0.475465,1.0564 0.19115,0.8237 0.0411,1.0594 -0.871096,1.3686 -1.105563,0.3747 -2.425746,0.5209 -2.834343,0.3139 z"
           id="path5617" />
        <path
           style="fill:none;stroke:#00c000;stroke-width:2;stroke-linecap:round;stroke-linejoin:round;stroke-miterlimit:4;stroke-dasharray:none;stroke-opacity:1"
           d="m 12.538711,1035.1267 c 0.762083,-0.2331 1.420653,-0.8792 1.69586,-1.6637 0.127904,-0.3646 0.167767,-1.0554 0.08313,-1.4406 -0.09612,-0.4375 -0.403981,-0.996 -0.727084,-1.3192 -1.301106,-1.301 -3.520646,-0.9246 -4.3001277,0.7295 -0.4738709,1.0055 -0.3151055,2.1216 0.4177755,2.9367 0.7247212,0.8061 1.7629262,1.0839 2.8304482,0.7573 z"
           id="path5615"
           inkscape:connector-curvature="0" />
      </g>
      <g
         transform="translate(4.9041889,-3.0304581)"
         id="g5632">
        <path
           style="fill:none;stroke:#00c000;stroke-width:2;stroke-linecap:round;stroke-linejoin:round;stroke-miterlimit:4;stroke-dasharray:none;stroke-opacity:1"
           d="m 27.744359,1034.4282 c -1.223625,-0.1406 -1.37581,-0.2862 -1.37581,-1.317 0,-0.8906 -0.05176,-0.9577 -1.025735,-1.3284 -0.406243,-0.1546 -0.885266,-0.3597 -1.064493,-0.4557 -0.193166,-0.1036 -0.393458,-0.1541 -0.491843,-0.1241 -0.09129,0.028 -0.411557,0.2861 -0.711711,0.5739 -0.457459,0.4386 -0.592006,0.5232 -0.831796,0.5232 -0.469693,0 -1.590736,-0.9306 -2.262984,-1.8785 -0.182411,-0.2572 -0.255969,-0.454 -0.255969,-0.6848 0,-0.2871 0.06029,-0.3862 0.533203,-0.876 0.299605,-0.3104 0.533203,-0.6253 0.533203,-0.7188 0,-0.091 -0.125727,-0.4393 -0.279395,-0.7727 -0.153667,-0.3335 -0.341615,-0.7974 -0.417661,-1.0311 -0.20023,-0.615 -0.282793,-0.6628 -1.201721,-0.6955 -0.895866,-0.032 -1.074949,-0.1252 -1.218706,-0.6352 -0.146747,-0.5205 -0.191513,-1.6682 -0.08821,-2.2614 0.180332,-1.0356 0.372584,-1.1911 1.474771,-1.1933 0.342926,-7e-4 0.671194,-0.032 0.729486,-0.069 0.05829,-0.037 0.228764,-0.3975 0.378827,-0.8012 0.150063,-0.4036 0.35154,-0.8881 0.447727,-1.0766 0.09619,-0.1886 0.174883,-0.4213 0.174883,-0.5173 0,-0.1013 -0.204051,-0.3869 -0.487026,-0.6816 -0.650571,-0.6775 -0.71824,-0.8672 -0.483478,-1.3556 0.227181,-0.4726 1.456347,-1.7089 1.960704,-1.9721 0.505121,-0.2635 0.702019,-0.2001 1.392162,0.4481 0.310348,0.2914 0.622154,0.5299 0.692902,0.5299 0.07075,0 0.339837,-0.1064 0.597974,-0.2365 0.258137,-0.1301 0.750958,-0.3363 1.095156,-0.4583 0.755311,-0.2677 0.809731,-0.3565 0.809731,-1.3225 0,-0.6213 0.02087,-0.718 0.191679,-0.8889 0.531892,-0.5318 3.257831,-0.4961 3.676556,0.048 0.116062,0.1509 0.148597,0.3499 0.152082,0.9303 0.0028,0.4727 0.04279,0.7887 0.11105,0.8786 0.05864,0.077 0.380464,0.2387 0.715164,0.3589 0.334702,0.1202 0.819751,0.3246 1.077888,0.4544 0.258137,0.1297 0.529353,0.2358 0.602702,0.2358 0.07335,0 0.381465,-0.2395 0.684702,-0.5323 0.677902,-0.6544 0.915236,-0.7244 1.431466,-0.4218 0.921935,0.5403 2.020774,1.836 2.020774,2.3828 0,0.2569 -0.07735,0.3828 -0.533203,0.8682 -0.312573,0.3328 -0.533204,0.6402 -0.533204,0.7429 0,0.096 0.12419,0.4393 0.275978,0.762 0.151788,0.3228 0.339489,0.7812 0.417114,1.0186 0.206551,0.6319 0.274923,0.6757 1.055932,0.6758 0.853369,2e-4 1.201809,0.1544 1.345805,0.5954 0.291174,0.892 0.181359,2.8198 -0.18489,3.2458 -0.176696,0.2055 -0.239087,0.221 -0.995513,0.2474 -0.559053,0.02 -0.848338,0.065 -0.941537,0.1481 -0.07399,0.066 -0.235161,0.404 -0.358153,0.7512 -0.122991,0.3471 -0.311621,0.8053 -0.419178,1.0181 -0.107557,0.2128 -0.195557,0.4682 -0.195557,0.5676 0,0.1111 0.205419,0.3935 0.533203,0.7331 0.469017,0.4858 0.533203,0.5904 0.533203,0.8693 0,0.3796 -0.240398,0.7706 -0.892553,1.452 -0.575439,0.6012 -1.347945,1.118 -1.67111,1.118 -0.184401,0 -0.370125,-0.1228 -0.787087,-0.5204 -0.300154,-0.2862 -0.614613,-0.5451 -0.698798,-0.5753 -0.09839,-0.035 -0.443526,0.078 -0.966213,0.3178 -0.447233,0.2051 -0.923965,0.3949 -1.059404,0.422 -0.43621,0.087 -0.569367,0.3623 -0.569367,1.1762 0,0.9012 -0.122768,1.098 -0.760437,1.2188 -0.67871,0.1287 -1.287187,0.1574 -1.883284,0.089 z"
           id="path5613"
           inkscape:connector-curvature="0" />
        <path
           style="fill:none;stroke:#00c000;stroke-width:2;stroke-linecap:round;stroke-linejoin:round;stroke-miterlimit:4;stroke-dasharray:none;stroke-opacity:1"
           d="m 29.022909,1026.6463 c 0.59563,-0.1262 1.049567,-0.3791 1.52027,-0.8469 0.626934,-0.6232 0.924981,-1.3287 0.924981,-2.1897 0,-1.9096 -1.71893,-3.3643 -3.593202,-3.0409 -1.496437,0.2583 -2.586489,1.532 -2.586489,3.0224 0,0.8904 0.2871,1.5765 0.924043,2.2082 0.784419,0.7779 1.755366,1.0705 2.810397,0.8469 z"
           id="path5609"
           inkscape:connector-curvature="0" />
      </g>
    </g>
  </g>
</svg>
